<svg width="100" height="100" viewBox="0 0 100 100" fill="none" xmlns="http://www.w3.org/2000/svg">
<rect width="100" height="100" fill="white"/>
<path d="M46.1371 59.0286C46.4507 58.5157 47.1204 58.354 47.6316 58.666C48.1445 58.9796 48.3062 59.6493 47.9942 60.1622C46.9064 61.9393 45.5376 64.0742 43.8715 66.3919C42.2055 68.7097 40.2568 71.1909 38.024 73.6426C34.2002 77.8388 28.2008 82.6932 21.8158 86.2295C16.54 89.1517 10.9734 91.1869 6.09441 91.2408C5.49495 91.2457 5.00494 90.7622 5.00004 90.1627C4.99514 89.5633 5.47862 89.0733 6.07808 89.0684C10.5568 89.0194 15.7674 87.0952 20.759 84.3299C26.9316 80.9112 32.7269 76.225 36.4135 72.1774C38.6039 69.7747 40.497 67.3638 42.1075 65.1228C43.718 62.8818 45.0607 60.7845 46.1371 59.0286Z" fill="#8B7452"/>
<path d="M44.1677 65.9689C43.7757 66.423 43.088 66.472 42.6339 66.0799C42.1799 65.6879 42.1308 65.0003 42.5229 64.5462C56.2924 48.6026 66.3067 52.7792 76.7866 57.1502C82.1588 59.3912 87.6617 61.6861 93.7967 61.0328C94.3946 60.9691 94.9303 61.4019 94.994 61.9997C95.0218 62.2676 94.9516 62.5224 94.8111 62.7282C76.9662 88.8609 63.4107 81.9418 52.2628 76.2495C47.0343 73.5805 42.3808 71.2039 38.3414 73.1721C37.8007 73.4351 37.1474 73.2097 36.8844 72.6691C36.6214 72.1284 36.8468 71.475 37.3875 71.2121C42.4036 68.7685 47.5129 71.3754 53.251 74.3057C63.365 79.4689 75.6073 85.7133 91.7338 63.3228C86.0005 63.3505 80.9223 61.2337 75.9519 59.1609C66.2136 55.1003 56.9065 51.2177 44.1677 65.9689Z" fill="#8B7452"/>
<path d="M50.1361 50.4583C51.4445 51.2227 52.32 52.4461 52.6777 53.8067C53.0354 55.1674 52.8737 56.6636 52.1109 57.9719C51.3465 59.2803 50.1231 60.1557 48.7624 60.5135C47.4949 60.8467 46.1098 60.7291 44.8701 60.0953H44.8521L44.5973 59.9467C43.2889 59.1823 42.4134 57.9588 42.0557 56.5982C41.7225 55.3307 41.8401 53.9456 42.4739 52.7058V52.6879L42.6225 52.4331C43.3869 51.1247 44.6104 50.2492 45.971 49.8915C47.3316 49.5338 48.8294 49.6939 50.1378 50.4583H50.1361ZM50.5722 54.3605C50.3566 53.5405 49.8274 52.8038 49.0369 52.3416C48.2447 51.8793 47.3414 51.7813 46.5231 51.9953C45.708 52.2093 44.9713 52.7352 44.5091 53.5209L44.5026 53.5307C44.0403 54.3229 43.9423 55.2245 44.1563 56.0429C44.3719 56.8612 44.9011 57.5995 45.6917 58.0617C46.4822 58.524 47.3855 58.622 48.2038 58.408C49.0221 58.1924 49.7605 57.6648 50.2227 56.8726C50.685 56.0804 50.783 55.1772 50.569 54.3588L50.5722 54.3605Z" fill="#8B7452"/>
<path d="M58.1273 46.4995C59.398 47.2427 60.2507 48.4318 60.5969 49.7548C60.9204 50.9848 60.8077 52.3274 60.1951 53.5312V53.5492L60.0465 53.804C59.3033 55.0764 58.1142 55.9274 56.7911 56.2737C55.4681 56.6216 54.0127 56.4648 52.742 55.7232C51.4695 54.98 50.6185 53.7893 50.2723 52.4679C49.9244 51.1448 50.0812 49.6895 50.8244 48.4187L50.8374 48.3942L50.8407 48.3877L50.8456 48.3795C51.5888 47.1283 52.7681 46.2904 54.0781 45.9474C55.4011 45.5995 56.8565 45.7563 58.1273 46.4978V46.4995ZM58.4931 50.3085C58.2873 49.5278 57.7826 48.8238 57.028 48.3828V48.3811L57.0002 48.3664H56.9986L56.9969 48.3648C56.2489 47.9401 55.4011 47.8503 54.6318 48.0528C53.851 48.2586 53.147 48.7634 52.706 49.518C52.265 50.2742 52.1719 51.135 52.3761 51.9158C52.5803 52.6933 53.0801 53.3924 53.8282 53.835L53.8412 53.8432C54.5959 54.2842 55.4567 54.3773 56.2374 54.1732C57.0182 53.9673 57.7222 53.4626 58.1632 52.708C58.6042 51.9517 58.6973 51.0909 58.4931 50.3102V50.3085Z" fill="#8B7452"/>
<path d="M94.5689 62.9802C86.5669 69.0662 79.099 67.4247 71.0839 65.6623C61.8487 63.6319 51.8442 61.4318 39.5611 71.879L38.1547 70.2178C51.2594 59.0731 61.8063 61.3926 71.5429 63.5323C79.0565 65.1837 86.0589 66.724 93.2556 61.2505L94.5672 62.9802H94.5689Z" fill="#8B7452"/>
<path d="M58.6109 61.7743C60.7605 61.8412 65.6574 61.593 69.8029 60.412C72.3053 59.6982 74.4892 58.6643 75.4692 57.1877L77.2839 58.3882C75.9706 60.3663 73.3441 61.6665 70.3991 62.506C66.0184 63.7539 60.8307 64.0153 58.5521 63.945L58.6109 61.7726V61.7743Z" fill="#8B7452"/>
<path d="M49.3697 63.4554C54.2389 61.5851 60.1861 65.5575 66.0744 69.4907C72.1278 73.535 78.1158 77.5352 81.6962 74.2668L83.1614 75.8773C78.3265 80.2907 71.6312 75.8185 64.8641 71.2973C59.4396 67.6728 53.9645 64.0156 50.1439 65.4824L49.3681 63.4554H49.3697Z" fill="#8B7452"/>
<path d="M25.8019 81.3232C26.0992 80.843 26.3817 80.3416 26.6512 79.8221C30.2937 72.7822 30.2153 64.0142 28.1033 56.3029C25.9979 48.6112 21.903 42.0205 17.4879 39.2895C17.2625 39.1506 17.0273 39.0167 16.7806 38.8893L17.777 36.9554C18.0514 37.0975 18.3373 37.2608 18.6296 37.4405C23.4906 40.4492 27.9547 47.5332 30.199 55.7312C32.4384 63.9096 32.5004 73.251 28.5852 80.8185C28.301 81.3657 27.9906 81.9162 27.6509 82.4633L25.8019 81.3216V81.3232Z" fill="#8B7452"/>
<path d="M29.9559 73.9025C30.5113 74.1279 30.7775 74.7616 30.5521 75.317C30.3267 75.8723 29.693 76.1386 29.1376 75.9132C13.4243 69.4956 15.3256 61.7157 17.3265 53.5259C18.5401 48.5587 19.7946 43.4233 16.389 38.5444C16.0459 38.0527 16.1652 37.3749 16.6568 37.0319C16.9688 36.8146 17.3543 36.782 17.6826 36.9143C24.765 39.7515 29.7256 43.015 33.0888 46.4582C36.9109 50.3702 38.6832 54.5141 39.1585 58.5371C39.6322 62.5406 38.8138 66.4036 37.4565 69.7912C35.485 74.7126 32.3538 78.6475 30.4427 80.5145C30.0115 80.9326 29.3238 80.9228 28.904 80.4932C28.4859 80.062 28.494 79.3743 28.9253 78.9546C30.6942 77.2264 33.5968 73.5742 35.436 68.9811C36.6724 65.8956 37.4189 62.3952 36.9942 58.7919C36.5712 55.2083 34.977 51.5021 31.5289 47.974C28.8338 45.2152 25.0084 42.5625 19.739 40.1566C21.6746 44.8656 20.541 49.5143 19.4352 54.0355C17.6614 61.2959 15.9757 68.1921 29.951 73.9008L29.9559 73.9025Z" fill="#8B7452"/>
<path d="M20.3534 49.9309C20.0463 53.0915 22.222 54.8637 24.6999 56.8826C27.4685 59.1383 30.567 61.6619 31.7137 66.5474L29.5919 67.0423C28.6135 62.8755 25.822 60.6018 23.3278 58.5699C20.3681 56.159 17.7694 54.0421 18.1892 49.7267L20.3534 49.9309Z" fill="#8B7452"/>
<path d="M34.3496 48.6192C33.1752 49.7904 32.3945 51.378 31.8897 53.0474C31.1743 55.4092 31.0175 57.9018 31.0796 59.6675L28.9072 59.7443C28.8385 57.7875 29.0117 55.027 29.8023 52.4169C30.4001 50.4454 31.3507 48.5392 32.8159 47.0773L34.3496 48.6192Z" fill="#8B7452"/>
<path d="M66.8076 8.1112C66.7962 7.51174 67.2731 7.01519 67.8726 7.00376C68.472 6.99232 68.9686 7.46927 68.98 8.06873C69.1401 14.9715 67.6423 21.4675 64.8802 27.9782V27.9814C62.141 34.4366 58.1637 40.8918 53.3321 47.7651C52.9858 48.2568 52.308 48.3744 51.8163 48.0297C51.3247 47.6834 51.207 47.0056 51.5517 46.5139C56.3032 39.7533 60.2087 33.4223 62.8793 27.1304C65.5254 20.8958 66.9595 14.6872 66.8076 8.1112Z" fill="#8B7452"/>
<path d="M68.94 7.79259C69.0004 7.99023 69.2275 8.70566 69.4643 9.45375C70.2647 11.9871 71.2006 14.9452 71.8915 18.1026C74.3383 29.2848 73.6833 42.5251 53.5632 46.9254C53.0568 47.0349 52.557 46.7735 52.3463 46.3227C44.5828 31.9505 49.9142 26.5799 57.3167 19.1267C60.4594 15.9612 64.0006 12.3971 66.9652 7.52145C67.2788 7.00856 67.9485 6.84685 68.4598 7.15883C68.7031 7.30747 68.8681 7.53615 68.94 7.79096V7.79259ZM69.7599 18.5632C69.1392 15.7276 68.298 13.0064 67.5483 10.6298C64.7568 14.7214 61.655 17.8445 58.857 20.6605C52.2369 27.3263 47.4363 32.1612 53.9013 44.6126C71.4097 40.4376 71.9536 28.5906 69.7583 18.5632H69.7599Z" fill="#8B7452"/>
<path d="M59.4287 20.0872C55.0071 24.2899 56.0411 27.5812 57.1436 31.0864C58.1841 34.3957 59.2752 37.8716 56.9885 42.3699L55.0463 41.3817C56.9313 37.6739 55.9757 34.6309 55.0659 31.7333C53.756 27.5632 52.526 23.6496 57.9309 18.5109L59.4304 20.0872H59.4287Z" fill="#8B7452"/>
<path d="M72.6461 22.6335C72.7033 26.5602 69.8693 28.2524 66.8296 30.0654C64.5902 31.4016 62.2201 32.8144 61.2728 35.2776L59.2457 34.5017C60.4659 31.3297 63.1642 29.7192 65.714 28.2001C68.1967 26.7186 70.5129 25.3368 70.4737 22.6596L72.6461 22.6335Z" fill="#8B7452"/>
<path d="M50.9613 41.8797C52.1619 42.6262 52.9671 43.7794 53.3036 45.0567C53.6515 46.3797 53.4947 47.8351 52.7532 49.1059L52.6813 49.2284L52.6748 49.2349C51.9283 50.4355 50.7751 51.2407 49.4978 51.5756C48.1748 51.9235 46.7194 51.7667 45.4486 51.0235L45.3261 50.9516L45.3196 50.9451C44.119 50.1986 43.3138 49.0454 42.9773 47.7681C42.6539 46.5382 42.7666 45.1955 43.3791 43.9917V43.9737L43.5278 43.7189C44.2709 42.4465 45.4601 41.5955 46.7831 41.2492C48.0131 40.9258 49.3557 41.0385 50.5595 41.6511H50.7343L50.9613 41.8781V41.8797ZM51.1982 45.6104C50.994 44.8296 50.4893 44.1273 49.7363 43.6863H49.733C48.9784 43.2436 48.1176 43.1489 47.3368 43.3547C46.5593 43.5589 45.8586 44.0603 45.416 44.81L45.4094 44.8198C44.9684 45.5745 44.8753 46.4369 45.0795 47.216C45.2853 47.9968 45.79 48.7008 46.5446 49.1418L46.5544 49.1467C47.3074 49.5828 48.165 49.6759 48.9408 49.4718C49.7216 49.2659 50.4256 48.7612 50.8666 48.0066L50.8764 47.9886C51.3092 47.2373 51.3991 46.383 51.1965 45.6088L51.1982 45.6104Z" fill="#8B7452"/>
<path d="M50.546 55.8743C50.3309 55.057 49.8027 54.3201 49.0136 53.8587C48.2234 53.3973 47.3226 53.2992 46.5053 53.5142C45.6911 53.7282 44.9573 54.2533 44.4959 55.0372L44.4896 55.0466C44.0283 55.8368 43.9301 56.7376 44.1441 57.5539C44.3592 58.3712 44.8863 59.1081 45.6765 59.5695H45.6775C46.4677 60.0309 47.3675 60.129 48.1848 59.915C49.0021 59.7 49.7391 59.1729 50.1994 58.3827C50.6608 57.5914 50.7589 56.6906 50.5449 55.8743H50.546Z" fill="#E63200"/>
<path d="M58.4501 51.8306C58.2455 51.0508 57.7413 50.3483 56.9887 49.9078L56.9605 49.8922H56.9584L56.9564 49.8901C56.21 49.4653 55.3635 49.3776 54.5952 49.579C53.8155 49.7836 53.113 50.2878 52.6735 51.0415C52.233 51.7961 52.1401 52.6552 52.3447 53.4339C52.5482 54.2095 53.0472 54.9078 53.7935 55.3483L53.8071 55.3556C54.5608 55.7961 55.4198 55.889 56.1985 55.6844C56.9783 55.4798 57.6808 54.9757 58.1202 54.2231C58.5607 53.4684 58.6536 52.6093 58.449 51.8306H58.4501Z" fill="#D40E00"/>
<path d="M76.391 60.8821C74.9557 62.3163 72.7522 63.3184 70.3326 64.0084C69.7909 64.1628 69.2366 64.3017 68.6781 64.4269C69.6186 64.6211 70.5508 64.8267 71.4756 65.0303C77.8461 66.4311 83.8482 67.7495 89.9128 64.7662C85.0757 64.4363 80.6864 62.6712 76.391 60.8821Z" fill="#6A9631"/>
<path d="M60.1737 63.2721C62.6559 63.2042 66.4356 62.8566 69.7373 61.9151C71.4554 61.4255 73.0233 60.7836 74.1527 59.9516C65.0755 56.2325 56.1768 53.6312 44.2782 67.317C50.0109 63.9861 55.2499 63.0967 60.1726 63.271L60.1737 63.2721Z" fill="#6A9631"/>
<path d="M76.3731 78.9148C72.7917 78.111 68.8136 75.4534 64.8105 72.7791C59.6958 69.3616 54.5351 65.9149 50.7647 66.7802C47.843 67.7437 44.795 69.3115 41.5915 71.7269C45.2742 71.7259 49.0821 73.6695 53.2188 75.7812C59.8534 79.1684 67.4055 83.0171 76.3731 78.9148Z" fill="#6A9631"/>
<path d="M56.756 65.56C59.7455 66.7865 62.8906 68.8867 66.0189 70.9775C71.498 74.6382 76.9238 78.2624 80.5512 76.4722C83.4958 74.3731 86.5856 71.3731 89.8371 67.2082C83.5428 69.9086 77.4562 68.5714 71.0178 67.156C66.5064 66.1643 61.8123 65.133 56.756 65.561V65.56Z" fill="#6A9631"/>
<path d="M29.5808 68.4274C28.5819 64.3355 25.823 62.0871 23.3533 60.0756C21.7792 58.7928 20.3074 57.5944 19.3388 56.1017C17.6738 62.9577 16.4442 69.4681 28.9117 74.9305C29.3627 72.8136 29.5735 70.6267 29.5798 68.4274H29.5808Z" fill="#6A9631"/>
<path d="M20.3771 51.5259C20.1109 54.6355 22.2674 56.3933 24.7225 58.3923C26.2194 59.6115 27.8133 60.91 29.1411 62.6188C28.8947 60.9893 28.5503 59.3797 28.1212 57.8129C26.4616 51.7483 23.5618 46.3704 20.2455 43.0354C21.0869 45.8955 20.8969 48.7305 20.3771 51.5249V51.5259Z" fill="#6A9631"/>
<path d="M29.5304 54.9873C29.6149 54.6355 29.7099 54.2838 29.8154 53.9351C30.2611 52.4623 30.9051 51.026 31.8143 49.7859C31.7245 49.6909 31.6348 49.5969 31.5429 49.503C29.5638 47.4769 26.9751 45.5093 23.6515 43.6544C26.0262 46.6909 28.0857 50.6314 29.5304 54.9873Z" fill="#6A9631"/>
<path d="M33.2782 51.4874C32.678 52.4153 32.2292 53.4717 31.8993 54.5635C31.1947 56.8923 31.0319 59.3464 31.0882 61.1053C32.1895 67.2294 32.0037 73.7242 29.8471 79.4757C31.5893 77.5342 33.8941 74.3348 35.4431 70.4674C36.6769 67.3891 37.4233 63.8933 36.9974 60.2984C36.6529 57.3892 35.536 54.3976 33.2782 51.4874Z" fill="#6A9631"/>
<path d="M55.0298 42.8829C56.8858 39.1992 55.9359 36.1732 55.0298 33.2911C54.4317 31.3851 53.8493 29.5333 53.9129 27.5928C50.5278 32.0323 49.3044 36.8621 53.4349 45.2775C53.9798 44.4738 54.5121 43.6752 55.0298 42.8819V42.8829Z" fill="#6A9631"/>
<path d="M64.4019 30.525C64.8205 30.2651 65.2411 30.0135 65.6587 29.7651C68.095 28.3121 70.3716 26.954 70.4092 24.3685C70.2484 22.9436 69.9989 21.5282 69.6973 20.1482C69.3789 18.6931 69.0021 17.2683 68.6096 15.905C68.0428 20.5386 66.738 25.0386 64.8257 29.5448L64.8236 29.549H64.8257C64.6879 29.8747 64.546 30.2004 64.4019 30.526V30.525Z" fill="#6A9631"/>
<path d="M59.2424 35.9579C59.5096 35.2878 59.8426 34.6876 60.2278 34.1448C61.1912 32.3191 62.0607 30.507 62.829 28.698H62.8311C64.973 23.6501 66.3196 18.6188 66.6703 13.3954C64.1067 16.9173 61.3374 19.7054 58.8176 22.243L58.71 22.3515C55.089 26.2252 56.0671 29.34 57.1057 32.6458C57.6098 34.2502 58.1255 35.8943 58.2622 37.6761C58.5984 37.102 58.9251 36.5299 59.2434 35.959L59.2424 35.9579Z" fill="#6A9631"/>
<path d="M70.5712 28.9736C69.5232 29.9851 68.1693 30.793 66.7716 31.626C65.0389 32.6594 63.2278 33.7398 62.0608 35.3191C60.2665 38.7022 58.1663 42.1186 55.8156 45.629C66.7403 42.4266 70.2038 35.9047 70.5701 28.9736H70.5712Z" fill="#6A9631"/>
<path d="M51.1704 47.1428C50.9658 46.3641 50.4637 45.6626 49.7111 45.2221L49.708 45.22C48.9543 44.7795 48.0953 44.6866 47.3155 44.8902C46.5389 45.0937 45.8395 45.5937 45.399 46.3422L45.3928 46.3526C44.9523 47.1062 44.8594 47.9664 45.0629 48.7451C45.2675 49.5248 45.7717 50.2273 46.5253 50.6678L46.5347 50.6741C47.2863 51.1094 48.1412 51.2012 48.9178 50.9977C49.6976 50.7931 50.4001 50.2889 50.8405 49.5352L50.851 49.5175C51.2821 48.768 51.3729 47.9152 51.1704 47.1417V47.1428Z" fill="#D40E00"/>
<path d="M46.1182 58.9653C46.4303 58.4539 47.0984 58.2921 47.6109 58.6042C48.1224 58.9163 48.2841 59.5843 47.972 60.0969C46.8854 61.8703 45.5201 64.0008 43.8573 66.315C42.1944 68.6292 40.2498 71.1052 38.0201 73.5519C34.2049 77.7398 28.2154 82.5853 21.8428 86.1145C16.5767 89.031 11.0214 91.0623 6.15296 91.1165C5.5538 91.1207 5.06529 90.6395 5.06007 90.0403C5.05589 89.4412 5.5371 88.9527 6.13626 88.9475C10.606 88.8973 15.8074 86.9777 20.7885 84.2178C26.9482 80.8055 32.7321 76.1281 36.4126 72.0885C38.5984 69.6897 40.4888 67.2847 42.0963 65.0467C43.7038 62.8098 45.0441 60.7179 46.1182 58.9643V58.9653Z" fill="#291501"/>
<path d="M44.1532 65.8936C43.7618 66.3466 43.076 66.3957 42.623 66.0042C42.1699 65.6118 42.1209 64.927 42.5123 64.474C56.2544 48.5617 66.2501 52.7298 76.7093 57.092C82.0705 59.3279 87.5631 61.618 93.6873 60.9667C94.2833 60.903 94.8188 61.3352 94.8825 61.9322C94.9106 62.1995 94.8397 62.4542 94.6998 62.6587C76.8899 88.7411 63.3608 81.834 52.2335 76.1535C47.0154 73.4896 42.3704 71.118 38.3391 73.0825C37.7994 73.3455 37.1481 73.1211 36.885 72.5804C36.622 72.0407 36.8464 71.3894 37.3871 71.1263C42.3933 68.6869 47.4924 71.2902 53.221 74.214C63.3149 79.3674 75.534 85.6002 91.6288 63.2527C85.9065 63.2809 80.8387 61.1681 75.8774 59.0982C66.1572 55.045 56.8692 51.1713 44.1543 65.8936H44.1532Z" fill="#291501"/>
<path d="M50.1098 50.4111C51.4157 51.1741 52.2893 52.3954 52.6463 53.7535C53.0033 55.1125 52.8426 56.6052 52.0806 57.9111C51.3175 59.2169 50.0963 60.0906 48.7393 60.4476C47.4741 60.7795 46.0921 60.6637 44.8541 60.0301H44.8364L44.5817 59.8808C43.2758 59.1177 42.4022 57.8965 42.0452 56.5384C41.7132 55.2733 41.8291 53.8913 42.4627 52.6533V52.6366L42.612 52.3819C43.374 51.076 44.5953 50.2023 45.9533 49.8453C47.3113 49.4884 48.805 49.6491 50.1109 50.4111H50.1098ZM50.5451 54.3057C50.3301 53.4883 49.8019 52.7514 49.0128 52.29C48.2226 51.8286 47.3217 51.7305 46.5044 51.9455C45.6902 52.1595 44.9564 52.6846 44.495 53.4685L44.4888 53.4779C44.0274 54.2681 43.9293 55.1689 44.1433 55.9852C44.3583 56.8025 44.8865 57.5395 45.6756 58.0008H45.6767C46.4668 58.4622 47.3666 58.5603 48.184 58.3463C49.0013 58.1313 49.7382 57.6042 50.1985 56.814C50.6599 56.0228 50.758 55.1219 50.5441 54.3057H50.5451Z" fill="#291501"/>
<path d="M58.0853 46.4598C59.3546 47.2009 60.2043 48.3888 60.5508 49.7082C60.8734 50.9347 60.7617 52.2761 60.149 53.4775V53.4963L59.9997 53.751C59.2586 55.0203 58.0707 55.87 56.7513 56.2165C55.4308 56.5631 53.9789 56.4076 52.7106 55.6664H52.7096C51.4403 54.9243 50.5906 53.7374 50.244 52.417C49.8975 51.0965 50.053 49.6445 50.7941 48.3752L50.8077 48.3512L50.8108 48.345L50.8161 48.3366C51.5582 47.0882 52.7357 46.2521 54.0425 45.9087C55.363 45.5621 56.815 45.7176 58.0843 46.4588L58.0853 46.4598ZM58.4506 50.2614C58.2461 49.4817 57.7419 48.7792 56.9882 48.3387L56.9601 48.323H56.958L56.9559 48.321C56.2095 47.8961 55.363 47.8084 54.5958 48.0099C53.816 48.2145 53.1135 48.7187 52.6741 49.4723C52.2336 50.227 52.1407 51.0861 52.3453 51.8648C52.5488 52.6403 53.0478 53.3387 53.7941 53.7792L53.8077 53.7875C54.5613 54.228 55.4204 54.3209 56.2001 54.1163C56.9799 53.9117 57.6824 53.4076 58.1218 52.655C58.5623 51.9003 58.6552 51.0412 58.4506 50.2625V50.2614Z" fill="#291501"/>
<path d="M94.4561 62.909C86.4697 68.9842 79.0157 67.3453 71.0168 65.5865C61.7998 63.5604 51.8145 61.3652 39.5557 71.791L38.1528 70.1324C51.232 59.0103 61.7591 61.3245 71.4761 63.4602C78.976 65.1094 85.9645 66.6449 93.1471 61.1825L94.4561 62.909Z" fill="#291501"/>
<path d="M58.5687 61.7063C60.7138 61.7731 65.6021 61.5257 69.7388 60.3472C72.2357 59.6353 74.4162 58.602 75.3943 57.1301L77.2053 58.3285C75.8943 60.3024 73.2732 61.6009 70.3338 62.4391C65.9622 63.6854 60.7838 63.9464 58.5092 63.8754L58.5687 61.7074V61.7063Z" fill="#291501"/>
<path d="M49.3451 63.3839C54.2052 61.5165 60.1394 65.481 66.0172 69.4079C72.0578 73.4444 78.0348 77.4371 81.6079 74.1741L83.0703 75.7816C78.2446 80.1866 71.5631 75.7231 64.8095 71.2106C59.3962 67.5937 53.9306 63.9424 50.1186 65.4069L49.3451 63.3829V63.3839Z" fill="#291501"/>
<path d="M25.8239 81.2168C26.1203 80.7377 26.4032 80.2377 26.6715 79.7189C30.3071 72.6929 30.2278 63.9414 28.1213 56.2451C26.0201 48.5677 21.9325 41.9905 17.5275 39.2651C17.3031 39.1262 17.0672 38.9926 16.8208 38.8653L17.8156 36.9352C18.0901 37.0772 18.374 37.239 18.6663 37.4206C23.518 40.4227 27.9731 47.4936 30.2121 55.6763C32.447 63.8391 32.5086 73.1616 28.6005 80.7148C28.3176 81.2617 28.0065 81.8097 27.6683 82.3567L25.8228 81.2168H25.8239Z" fill="#291501"/>
<path d="M29.9693 73.8107C30.5235 74.0361 30.7897 74.6676 30.5642 75.2219C30.3388 75.7762 29.7062 76.0424 29.153 75.8169C13.4715 69.4109 15.3681 61.6479 17.365 53.4736C18.5758 48.5164 19.8284 43.3901 16.4297 38.5217C16.0873 38.0311 16.2063 37.3547 16.698 37.0123C17.009 36.7952 17.3942 36.7639 17.722 36.8944C24.7898 39.7252 29.7417 42.983 33.0987 46.4204C36.9139 50.3254 38.6821 54.46 39.1571 58.4757C39.6299 62.4715 38.8126 66.3263 37.4577 69.7073C35.4891 74.6196 32.3649 78.5465 30.4578 80.4098C30.0277 80.8273 29.3409 80.8179 28.9233 80.3889C28.5058 79.9588 28.5152 79.272 28.9442 78.8545C30.7093 77.1301 33.606 73.4839 35.4431 68.9004C36.6769 65.8222 37.4233 62.3264 36.9974 58.7314C36.5746 55.1552 34.9828 51.4559 31.5423 47.935C28.8513 45.1814 25.0351 42.5342 19.7752 40.1334C21.7073 44.8338 20.5748 49.4736 19.4725 53.9851C17.7021 61.2324 16.0205 68.1144 29.9682 73.8117L29.9693 73.8107Z" fill="#291501"/>
<path d="M20.3828 49.8863C20.077 53.0408 22.2481 54.8101 24.722 56.8247C27.4861 59.0762 30.5779 61.595 31.723 66.4708L29.6051 66.9645C28.6281 62.8058 25.8431 60.5365 23.3525 58.5084C20.3985 56.1023 17.8056 53.9896 18.2231 49.6827L20.3828 49.8873V49.8863Z" fill="#291501"/>
<path d="M34.3537 48.5765C33.1815 49.7456 32.4028 51.3302 31.8986 52.9951C31.1847 55.3531 31.027 57.8406 31.0897 59.6026L28.9216 59.6788C28.8527 57.7258 29.0271 54.9711 29.8162 52.3646C30.4122 50.3959 31.3611 48.4951 32.8245 47.0358L34.3548 48.5755L34.3537 48.5765Z" fill="#291501"/>
<path d="M66.7501 8.14725C66.7386 7.54809 67.2146 7.05331 67.8127 7.04183C68.4119 7.03035 68.9067 7.50634 68.9181 8.10445C69.0778 14.9938 67.5831 21.4781 64.8263 27.9749L64.8242 27.9791H64.8263C62.0925 34.4227 58.1218 40.8642 53.3003 47.7243C52.9548 48.2149 52.2773 48.3329 51.7867 47.9884C51.2961 47.6429 51.1782 46.9654 51.5227 46.4748C56.2658 39.7264 60.1635 33.4081 62.8274 27.1294H62.8295C65.4693 20.9071 66.9025 14.7098 66.7501 8.14725Z" fill="#291501"/>
<path d="M68.8773 7.8288C68.9379 8.02504 69.1644 8.74111 69.4003 9.48641C70.1999 12.0156 71.133 14.9676 71.822 18.1189C74.2635 29.2796 73.6101 42.4935 53.5298 46.8871C53.0246 46.9967 52.5257 46.7347 52.3148 46.2858C44.5664 31.9414 49.8869 26.5824 57.2762 19.1429C60.4139 15.9843 63.9473 12.4269 66.9066 7.56053C67.2187 7.04905 67.8867 6.88726 68.3992 7.19936C68.6425 7.34759 68.8063 7.57619 68.8784 7.82984L68.8773 7.8288ZM69.6967 18.5782C69.0777 15.7484 68.2385 13.0323 67.4901 10.6607C64.7041 14.7432 61.6081 17.8622 58.8158 20.6722C52.2083 27.3245 47.4182 32.1502 53.8701 44.577C71.3449 40.4101 71.8867 28.5865 69.6967 18.5772V18.5782Z" fill="#291501"/>
<path d="M59.386 20.0993C54.9737 24.2945 56.005 27.5784 57.1042 31.0763C58.1417 34.38 59.2315 37.8476 56.9486 42.3382L55.0102 41.3518C56.8912 37.6503 55.9382 34.6138 55.029 31.7224C53.7211 27.5606 52.4946 23.6546 57.8891 18.5252L59.386 20.0982V20.0993Z" fill="#291501"/>
<path d="M72.5775 22.6407C72.6349 26.5603 69.8051 28.2482 66.7717 30.0572C64.5368 31.3901 62.1715 32.8004 61.2268 35.2596L59.2028 34.4862C60.421 31.3202 63.1141 29.7137 65.6579 28.196C68.136 26.7179 70.4481 25.339 70.4084 22.6668L72.5764 22.6418L72.5775 22.6407Z" fill="#291501"/>
<path d="M50.9339 41.8497C52.1322 42.595 52.9359 43.7453 53.271 45.0209C53.6176 46.3424 53.462 47.7933 52.7209 49.0626L52.6499 49.1858L52.6437 49.1921C51.8984 50.3893 50.747 51.1931 49.4725 51.5282C48.1521 51.8747 46.7001 51.7192 45.4308 50.9781L45.3076 50.906L45.3014 50.8998C44.103 50.1545 43.2993 49.0031 42.9642 47.7286C42.6417 46.501 42.7544 45.1608 43.3661 43.9593V43.9416L43.5154 43.6869C44.2565 42.4176 45.4444 41.5679 46.7638 41.2213C47.9913 40.8988 49.3316 41.0105 50.533 41.6232H50.7084L50.9349 41.8497H50.9339ZM51.1708 45.5741C50.9662 44.7954 50.4642 44.094 49.7116 43.6535L49.7084 43.6514C48.9548 43.2109 48.0957 43.118 47.316 43.3226C46.5393 43.5261 45.84 44.0261 45.3995 44.7745L45.3932 44.785C44.9527 45.5386 44.8598 46.3988 45.0644 47.1775C45.269 47.9572 45.7732 48.6597 46.5268 49.1002L46.5362 49.1054C47.2878 49.5407 48.1427 49.6326 48.9193 49.429C49.699 49.2244 50.4015 48.7202 50.842 47.9666L50.8525 47.9489C51.2836 47.1994 51.3744 46.3466 51.1719 45.5741H51.1708Z" fill="#291501"/>
<path fill-rule="evenodd" clip-rule="evenodd" d="M49.6315 44.7877C49.6158 44.5528 49.4697 44.3263 49.1962 44.1645C48.9217 44.0027 48.573 43.9359 48.2307 43.9599C47.8872 43.9839 47.5501 44.0966 47.3006 44.295C47.0501 44.4933 46.9342 44.7375 46.9499 44.9724C46.9655 45.2083 47.1117 45.4338 47.3852 45.5956C47.6597 45.7574 48.0083 45.8231 48.3507 45.8002C48.6931 45.7762 49.0313 45.6624 49.2808 45.4651C49.5313 45.2668 49.6471 45.0225 49.6315 44.7877Z" fill="white"/>
<path fill-rule="evenodd" clip-rule="evenodd" d="M48.4969 53.4949C48.4813 53.2601 48.3351 53.0335 48.0617 52.8717C47.7871 52.7099 47.4385 52.6431 47.0961 52.6671C46.7527 52.6912 46.4155 52.8039 46.1661 53.0022C45.9155 53.2006 45.7997 53.4448 45.8153 53.6797C45.831 53.9156 45.9771 54.141 46.2506 54.3028C46.5251 54.4646 46.8738 54.5314 47.2162 54.5074C47.5585 54.4834 47.8967 54.3696 48.1462 54.1724C48.3967 53.974 48.5126 53.7298 48.4969 53.4949Z" fill="white"/>
<path fill-rule="evenodd" clip-rule="evenodd" d="M56.1885 50.1491C56.1729 49.9143 56.0267 49.6878 55.7532 49.526C55.4787 49.3642 55.1301 49.2974 54.7877 49.3214C54.4443 49.3454 54.1071 49.4581 53.8576 49.6565C53.6071 49.8548 53.4912 50.099 53.5069 50.3339C53.5226 50.5698 53.6687 50.7953 53.9422 50.9571C54.2167 51.1189 54.5654 51.1857 54.9077 51.1617C55.2501 51.1377 55.5883 51.0239 55.8378 50.8266C56.0883 50.6283 56.2042 50.384 56.1885 50.1491Z" fill="white"/>
</svg>
