<svg width="240" height="80" viewBox="0 0 240 80" fill="none" xmlns="http://www.w3.org/2000/svg">
<path d="M42.8966 47.7654C43.1584 47.3372 43.7176 47.2022 44.1444 47.4627C44.5726 47.7245 44.7076 48.2836 44.4472 48.7119C43.5389 50.1956 42.3961 51.9781 41.005 53.9132C39.614 55.8484 37.987 57.92 36.1228 59.967C32.9302 63.4705 27.9211 67.5235 22.5902 70.4761C18.1853 72.9158 13.5376 74.6151 9.46404 74.6601C8.96354 74.6642 8.55442 74.2605 8.55032 73.76C8.54623 73.2595 8.9499 72.8504 9.4504 72.8463C13.1898 72.8054 17.5402 71.1989 21.7079 68.89C26.8615 66.0357 31.7001 62.1231 34.7781 58.7437C36.6069 56.7376 38.1875 54.7247 39.5322 52.8536C40.8769 50.9825 41.9979 49.2314 42.8966 47.7654Z" fill="#8B7452"/>
<path d="M41.2518 53.5599C40.9245 53.939 40.3504 53.9799 39.9712 53.6526C39.5921 53.3253 39.5512 52.7512 39.8785 52.372C51.375 39.0604 59.7362 42.5475 68.4861 46.1969C72.9715 48.068 77.566 49.9841 82.6883 49.4386C83.1874 49.3854 83.6347 49.7468 83.6879 50.2459C83.7111 50.4696 83.6524 50.6823 83.5352 50.8542C68.6361 72.673 57.3183 66.8961 48.0106 62.1434C43.6452 59.915 39.7599 57.9307 36.3873 59.574C35.9359 59.7936 35.3904 59.6054 35.1708 59.154C34.9513 58.7026 35.1395 58.1571 35.5909 57.9375C39.779 55.8974 44.0448 58.0739 48.8357 60.5205C57.2801 64.8313 67.5014 70.045 80.9658 51.3506C76.179 51.3738 71.9391 49.6063 67.7892 47.8757C59.6585 44.4854 51.8878 41.2438 41.2518 53.5599Z" fill="#8B7452"/>
<path d="M46.235 40.6097C47.3274 41.248 48.0583 42.2694 48.357 43.4054C48.6557 44.5415 48.5207 45.7907 47.8838 46.883C47.2456 47.9754 46.2241 48.7064 45.0881 49.005C44.0298 49.2832 42.8733 49.185 41.8382 48.6559H41.8232L41.6105 48.5318C40.5181 47.8936 39.7872 46.8721 39.4885 45.7361C39.2103 44.6778 39.3085 43.5214 39.8376 42.4863V42.4713L39.9617 42.2585C40.6 41.1662 41.6214 40.4352 42.7574 40.1365C43.8934 39.8378 45.144 39.9715 46.2364 40.6097H46.235ZM46.5991 43.8678C46.4191 43.1831 45.9773 42.5681 45.3172 42.1821C44.6558 41.7962 43.9016 41.7144 43.2184 41.893C42.5379 42.0717 41.9228 42.5108 41.5369 43.1668L41.5314 43.175C41.1455 43.8364 41.0636 44.5892 41.2423 45.2724C41.4223 45.9557 41.8642 46.5721 42.5242 46.958C43.1843 47.344 43.9384 47.4258 44.6217 47.2471C45.3049 47.0671 45.9213 46.6266 46.3073 45.9652C46.6932 45.3038 46.7751 44.5496 46.5964 43.8664L46.5991 43.8678Z" fill="#8B7452"/>
<path d="M52.9075 37.3043C53.9685 37.9248 54.6804 38.9176 54.9695 40.0223C55.2395 41.0492 55.1454 42.1702 54.634 43.1753V43.1903L54.5099 43.403C53.8894 44.4654 52.8966 45.1759 51.7919 45.465C50.6873 45.7555 49.4722 45.6246 48.4112 45.0054C47.3488 44.3849 46.6383 43.3908 46.3492 42.2875C46.0587 41.1828 46.1896 39.9677 46.8101 38.9067L46.821 38.8863L46.8237 38.8808L46.8278 38.874C47.4483 37.8293 48.433 37.1297 49.5267 36.8433C50.6314 36.5529 51.8465 36.6838 52.9075 37.3029V37.3043ZM53.2129 40.4846C53.0411 39.8327 52.6197 39.2449 51.9897 38.8767V38.8753L51.9665 38.8631H51.9651L51.9637 38.8617C51.3391 38.5071 50.6314 38.4321 49.989 38.6012C49.3371 38.7731 48.7494 39.1945 48.3811 39.8245C48.0129 40.4559 47.9352 41.1746 48.1057 41.8265C48.2761 42.4757 48.6934 43.0594 49.3181 43.4289L49.329 43.4358C49.959 43.804 50.6777 43.8817 51.3296 43.7112C51.9815 43.5394 52.5693 43.118 52.9375 42.4879C53.3057 41.8565 53.3834 41.1378 53.2129 40.4859V40.4846Z" fill="#8B7452"/>
<path d="M83.3334 51.0646C76.6524 56.1459 70.4173 54.7754 63.7253 53.3039C56.0146 51.6087 47.6616 49.7717 37.4061 58.4943L36.2319 57.1074C47.1734 47.8025 55.9792 49.739 64.1085 51.5255C70.3818 52.9043 76.2282 54.1903 82.237 49.6204L83.3321 51.0646H83.3334Z" fill="#8B7452"/>
<path d="M53.3113 50.0577C55.106 50.1136 59.1946 49.9063 62.6558 48.9203C64.7451 48.3244 66.5684 47.4611 67.3867 46.2283L68.9018 47.2306C67.8053 48.8821 65.6124 49.9677 63.1535 50.6687C59.4959 51.7106 55.1646 51.9288 53.2622 51.8701L53.3113 50.0563V50.0577Z" fill="#8B7452"/>
<path d="M45.5956 51.4614C49.661 49.8999 54.6264 53.2166 59.5428 56.5005C64.5969 59.8772 69.5964 63.217 72.5857 60.4881L73.809 61.8328C69.7723 65.5177 64.1823 61.7837 58.5322 58.0088C54.0032 54.9826 49.4319 51.9292 46.242 53.1538L45.5942 51.4614H45.5956Z" fill="#8B7452"/>
<path d="M25.9188 66.3797C26.167 65.9788 26.4029 65.5601 26.6279 65.1264C29.6691 59.2486 29.6036 51.928 27.8403 45.4897C26.0824 39.0677 22.6635 33.565 18.9772 31.2847C18.789 31.1688 18.5926 31.057 18.3867 30.9506L19.2186 29.3359C19.4477 29.4546 19.6864 29.591 19.9305 29.741C23.989 32.253 27.7162 38.1676 29.59 45.0123C31.4597 51.8407 31.5115 59.64 28.2426 65.9583C28.0053 66.4152 27.7462 66.8748 27.4625 67.3316L25.9188 66.3783V66.3797Z" fill="#8B7452"/>
<path d="M29.3866 60.1838C29.8503 60.372 30.0725 60.9012 29.8843 61.3648C29.6962 61.8285 29.167 62.0508 28.7033 61.8626C15.584 56.5044 17.1714 50.0088 18.842 43.1709C19.8553 39.0237 20.9026 34.7361 18.0592 30.6625C17.7728 30.252 17.8724 29.6861 18.2829 29.3997C18.5433 29.2183 18.8652 29.191 19.1393 29.3015C25.0526 31.6704 29.1943 34.3951 32.0023 37.2699C35.1935 40.5361 36.6731 43.996 37.07 47.3549C37.4655 50.6975 36.7822 53.9228 35.649 56.7512C34.0029 60.8602 31.3886 64.1455 29.793 65.7043C29.4329 66.0534 28.8588 66.0453 28.5083 65.6866C28.1592 65.3266 28.166 64.7524 28.526 64.4019C30.003 62.9591 32.4264 59.9097 33.962 56.0748C34.9944 53.4987 35.6176 50.5761 35.263 47.5677C34.9098 44.5756 33.5788 41.4812 30.6999 38.5355C28.4497 36.2321 25.2558 34.0174 20.8563 32.0086C22.4723 35.9403 21.5259 39.8215 20.6026 43.5964C19.1216 49.6583 17.7142 55.4161 29.3825 60.1825L29.3866 60.1838Z" fill="#8B7452"/>
<path d="M21.3687 40.1695C21.1123 42.8084 22.9289 44.288 24.9977 45.9736C27.3093 47.857 29.8963 49.964 30.8537 54.043L29.0822 54.4562C28.2653 50.9773 25.9346 49.0789 23.8521 47.3824C21.381 45.3695 19.2113 43.6021 19.5618 39.999L21.3687 40.1695Z" fill="#8B7452"/>
<path d="M33.0545 39.0743C32.0739 40.0521 31.4221 41.3776 31.0007 42.7714C30.4033 44.7434 30.2724 46.8245 30.3242 48.2987L28.5104 48.3628C28.4532 46.729 28.5977 44.4243 29.2578 42.245C29.7569 40.5989 30.5506 39.0074 31.7739 37.7869L33.0545 39.0743Z" fill="#8B7452"/>
<path d="M60.1549 5.25317C60.1453 4.75267 60.5436 4.33808 61.0441 4.32854C61.5446 4.31899 61.9591 4.71721 61.9687 5.21771C62.1023 10.981 60.8518 16.4046 58.5457 21.8406V21.8433C56.2586 27.2329 52.9379 32.6224 48.9039 38.3611C48.6148 38.7716 48.0488 38.8698 47.6383 38.5821C47.2278 38.2929 47.1296 37.727 47.4174 37.3165C51.3846 31.6719 54.6453 26.386 56.8751 21.1328C59.0843 15.9273 60.2817 10.7437 60.1549 5.25317Z" fill="#8B7452"/>
<path d="M61.9357 4.98715C61.9862 5.15217 62.1758 5.74949 62.3735 6.37409C63.0418 8.48928 63.8232 10.9591 64.4001 13.5952C66.443 22.9315 65.8961 33.9861 49.0973 37.6601C48.6746 37.7514 48.2572 37.5332 48.0813 37.1568C41.5994 25.1571 46.0507 20.6731 52.2312 14.4503C54.8551 11.8073 57.8117 8.83159 60.287 4.76077C60.5488 4.33255 61.1079 4.19754 61.5348 4.45801C61.738 4.58212 61.8757 4.77304 61.9357 4.98579V4.98715ZM62.6204 13.9798C62.1021 11.6123 61.3998 9.34027 60.7738 7.356C58.4432 10.7722 55.8534 13.3797 53.5173 15.7308C47.9899 21.2963 43.9819 25.3331 49.3796 35.729C63.9977 32.2432 64.4519 22.3519 62.619 13.9798H62.6204Z" fill="#8B7452"/>
<path d="M53.9941 15.2521C50.3024 18.761 51.1657 21.509 52.0862 24.4356C52.9549 27.1986 53.8659 30.1007 51.9567 33.8565L50.3351 33.0314C51.9089 29.9356 51.1111 27.395 50.3515 24.9757C49.2578 21.494 48.2309 18.2264 52.7435 13.936L53.9955 15.2521H53.9941Z" fill="#8B7452"/>
<path d="M65.0301 17.3782C65.0778 20.6566 62.7117 22.0695 60.1737 23.5833C58.304 24.6988 56.3252 25.8785 55.5342 27.935L53.8418 27.2872C54.8605 24.6388 57.1134 23.2942 59.2423 22.0259C61.3152 20.7889 63.249 19.6352 63.2163 17.4L65.0301 17.3782Z" fill="#8B7452"/>
<path d="M46.925 33.4474C47.9273 34.0707 48.5997 35.0335 48.8806 36.0999C49.1711 37.2046 49.0401 38.4197 48.421 39.4807L48.361 39.583L48.3555 39.5884C47.7323 40.5908 46.7695 41.2631 45.703 41.5427C44.5984 41.8332 43.3833 41.7023 42.3223 41.0817L42.22 41.0217L42.2145 41.0163C41.2122 40.393 40.5398 39.4302 40.2589 38.3638C39.9889 37.3369 40.083 36.2159 40.5944 35.2108V35.1958L40.7185 34.983C41.339 33.9206 42.3318 33.2101 43.4365 32.921C44.4634 32.651 45.5844 32.7451 46.5895 33.2565H46.7354L46.925 33.4461V33.4474ZM47.1227 36.5622C46.9522 35.9104 46.5308 35.324 45.9021 34.9557H45.8994C45.2693 34.5862 44.5507 34.5071 43.8988 34.6789C43.2496 34.8494 42.6646 35.268 42.295 35.894L42.2895 35.9022C41.9213 36.5322 41.8436 37.2523 42.0141 37.9028C42.1859 38.5547 42.6073 39.1425 43.2374 39.5107L43.2455 39.5148C43.8742 39.8789 44.5902 39.9566 45.238 39.7862C45.8899 39.6143 46.4776 39.1929 46.8459 38.5629L46.854 38.5479C47.2154 37.9206 47.2904 37.2073 47.1213 36.5609L47.1227 36.5622Z" fill="#8B7452"/>
<path d="M46.5769 45.1317C46.3973 44.4493 45.9563 43.834 45.2975 43.4487C44.6377 43.0635 43.8856 42.9816 43.2032 43.1611C42.5234 43.3398 41.9107 43.7782 41.5255 44.4327L41.5203 44.4405C41.1351 45.1003 41.0532 45.8524 41.2318 46.5339C41.4114 47.2163 41.8515 47.8316 42.5112 48.2168H42.5121C43.1718 48.6021 43.9231 48.684 44.6055 48.5053C45.2879 48.3258 45.9032 47.8857 46.2875 47.2259C46.6727 46.5653 46.7546 45.8132 46.576 45.1317H46.5769Z" fill="#E63200"/>
<path d="M53.1772 41.7555C53.0063 41.1044 52.5854 40.5179 51.957 40.1501L51.9335 40.137H51.9318L51.93 40.1353C51.3069 39.7806 50.6001 39.7074 49.9586 39.8756C49.3076 40.0464 48.7211 40.4673 48.3542 41.0966C47.9864 41.7267 47.9088 42.444 48.0796 43.0941C48.2496 43.7417 48.6662 44.3247 49.2893 44.6925L49.3006 44.6986C49.9299 45.0664 50.6471 45.1439 51.2973 44.9731C51.9483 44.8023 52.5349 44.3814 52.9018 43.753C53.2695 43.1229 53.3471 42.4056 53.1763 41.7555H53.1772Z" fill="#D40E00"/>
<path d="M68.1565 49.3127C66.9581 50.5102 65.1183 51.3469 63.0982 51.923C62.6458 52.0519 62.1831 52.1679 61.7168 52.2724C62.502 52.4345 63.2803 52.6062 64.0525 52.7762C69.3714 53.9458 74.3826 55.0465 79.4461 52.5557C75.4075 52.2803 71.7428 50.8065 68.1565 49.3127Z" fill="#6A9631"/>
<path d="M54.6162 51.3082C56.6887 51.2516 59.8445 50.9614 62.6011 50.1752C64.0356 49.7665 65.3447 49.2305 66.2876 48.5359C58.7089 45.4307 51.2792 43.2588 41.3447 54.6854C46.1311 51.9043 50.5053 51.1618 54.6154 51.3074L54.6162 51.3082Z" fill="#6A9631"/>
<path d="M68.141 64.3687C65.1508 63.6976 61.8295 61.4787 58.4872 59.2459C54.2167 56.3925 49.9079 53.5147 46.76 54.2372C44.3206 55.0416 41.7758 56.3507 39.1011 58.3674C42.1758 58.3665 45.3551 59.9893 48.8089 61.7524C54.3483 64.5805 60.6538 67.7938 68.141 64.3687Z" fill="#6A9631"/>
<path d="M51.7622 53.2184C54.2582 54.2425 56.8841 55.996 59.4961 57.7416C64.0707 60.7981 68.6009 63.824 71.6294 62.3293C74.0879 60.5767 76.6676 58.0719 79.3824 54.5946C74.1272 56.8492 69.0453 55.7328 63.6698 54.551C59.9031 53.723 55.9839 52.862 51.7622 53.2193V53.2184Z" fill="#6A9631"/>
<path d="M29.0726 55.6125C28.2386 52.1961 25.9351 50.3188 23.8731 48.6394C22.5589 47.5683 21.33 46.5678 20.5212 45.3215C19.1312 51.0457 18.1045 56.4814 28.514 61.0421C28.8904 59.2746 29.0665 57.4488 29.0717 55.6125H29.0726Z" fill="#6A9631"/>
<path d="M21.3886 41.5011C21.1664 44.0973 22.9669 45.565 25.0168 47.234C26.2665 48.2519 27.5973 49.3361 28.7059 50.7627C28.5002 49.4023 28.2126 48.0584 27.8544 46.7503C26.4687 41.6867 24.0476 37.1966 21.2788 34.4121C21.9813 36.8001 21.8226 39.1671 21.3886 41.5002V41.5011Z" fill="#6A9631"/>
<path d="M29.0314 44.3911C29.102 44.0974 29.1814 43.8037 29.2694 43.5126C29.6415 42.2829 30.1792 41.0837 30.9383 40.0483C30.8634 39.969 30.7884 39.8905 30.7117 39.8121C29.0593 38.1205 26.898 36.4777 24.123 34.929C26.1058 37.4642 27.8253 40.7542 29.0314 44.3911Z" fill="#6A9631"/>
<path d="M32.1601 41.4688C31.659 42.2435 31.2842 43.1255 31.0088 44.0371C30.4205 45.9815 30.2846 48.0304 30.3316 49.499C31.2511 54.6122 31.096 60.0348 29.2954 64.8369C30.75 63.2159 32.6743 60.5446 33.9676 57.3156C34.9978 54.7455 35.6209 51.8268 35.2653 48.8253C34.9777 46.3963 34.0452 43.8986 32.1601 41.4688Z" fill="#6A9631"/>
<path d="M50.3206 34.2849C51.8701 31.2093 51.077 28.6827 50.3206 26.2764C49.8212 24.685 49.3349 23.139 49.388 21.5188C46.5617 25.2254 45.5403 29.2579 48.9889 36.2841C49.4438 35.6131 49.8883 34.9464 50.3206 34.284V34.2849Z" fill="#6A9631"/>
<path d="M58.1465 23.9668C58.496 23.7498 58.8472 23.5398 59.1958 23.3323C61.2299 22.1192 63.1307 20.9853 63.1621 18.8266C63.0279 17.6369 62.8196 16.4551 62.5677 15.303C62.3019 14.0881 61.9873 12.8985 61.6596 11.7603C61.1863 15.6289 60.0969 19.3861 58.5003 23.1484L58.4986 23.1519H58.5003C58.3853 23.4238 58.2668 23.6958 58.1465 23.9677V23.9668Z" fill="#6A9631"/>
<path d="M53.8377 28.503C54.0608 27.9435 54.3388 27.4424 54.6604 26.9892C55.4648 25.4649 56.1908 23.9519 56.8323 22.4416H56.834C58.6224 18.2269 59.7466 14.0261 60.0395 9.66504C57.899 12.6056 55.5869 14.9334 53.483 17.0521L53.3932 17.1427C50.3699 20.3769 51.1866 22.9775 52.0537 25.7377C52.4747 27.0772 52.9052 28.4498 53.0194 29.9375C53.3 29.4582 53.5728 28.9806 53.8386 28.5039L53.8377 28.503Z" fill="#6A9631"/>
<path d="M63.2969 22.6716C62.4219 23.5161 61.2915 24.1907 60.1245 24.8862C58.6778 25.749 57.1657 26.651 56.1914 27.9696C54.6932 30.7942 52.9397 33.6467 50.9771 36.5776C60.0984 33.9038 62.9901 28.4585 63.296 22.6716H63.2969Z" fill="#6A9631"/>
<path d="M47.0987 37.8416C46.9279 37.1915 46.5087 36.6058 45.8803 36.238L45.8777 36.2363C45.2485 35.8685 44.5312 35.7909 43.8802 35.9609C43.2318 36.1308 42.6478 36.5483 42.2801 37.1731L42.2748 37.1819C41.9071 37.8111 41.8295 38.5292 41.9994 39.1794C42.1703 39.8304 42.5912 40.417 43.2204 40.7847L43.2283 40.79C43.8558 41.1534 44.5695 41.2301 45.218 41.0601C45.869 40.8893 46.4555 40.4684 46.8233 39.8391L46.832 39.8243C47.192 39.1986 47.2678 38.4865 47.0987 37.8407V37.8416Z" fill="#D40E00"/>
<path d="M42.8805 47.7123C43.1411 47.2853 43.6989 47.1502 44.1268 47.4108C44.5538 47.6713 44.6889 48.2291 44.4283 48.657C43.5211 50.1378 42.3811 51.9165 40.9928 53.8487C39.6045 55.7809 37.9808 57.8481 36.1192 59.891C32.9338 63.3875 27.9331 67.4331 22.6124 70.3797C18.2156 72.8148 13.5774 74.5108 9.5126 74.5561C9.01235 74.5596 8.60448 74.1578 8.60012 73.6575C8.59663 73.1573 8.99841 72.7494 9.49866 72.7451C13.2305 72.7032 17.5733 71.1005 21.7322 68.7962C26.875 65.9472 31.7041 62.0419 34.7771 58.6691C36.6021 56.6663 38.1804 54.6583 39.5225 52.7898C40.8647 50.9221 41.9837 49.1756 42.8805 47.7114V47.7123Z" fill="#291501"/>
<path d="M41.2399 53.4969C40.9131 53.8751 40.3405 53.9161 39.9622 53.5892C39.584 53.2616 39.543 52.6898 39.8699 52.3116C51.3434 39.0261 59.6891 42.5061 68.4217 46.1482C72.8979 48.015 77.4838 49.9271 82.597 49.3833C83.0947 49.3301 83.5417 49.6909 83.5949 50.1894C83.6184 50.4125 83.5592 50.6252 83.4424 50.796C68.5725 72.5728 57.2767 66.8059 47.9863 62.0631C43.6296 59.8389 39.7513 57.8588 36.3855 59.499C35.935 59.7187 35.3911 59.5313 35.1715 59.0798C34.9519 58.6293 35.1393 58.0854 35.5907 57.8658C39.7705 55.8291 44.0279 58.0026 48.8108 60.4438C57.2384 64.7465 67.4404 69.9503 80.8784 51.2919C76.1007 51.3154 71.8695 49.5515 67.7271 47.8233C59.6115 44.4391 51.8568 41.2049 41.2408 53.4969H41.2399Z" fill="#291501"/>
<path d="M46.2137 40.5703C47.304 41.2074 48.0334 42.2271 48.3315 43.3609C48.6295 44.4956 48.4953 45.7419 47.8591 46.8322C47.222 47.9225 46.2024 48.6519 45.0694 48.95C44.0131 49.2271 42.8592 49.1304 41.8256 48.6014H41.8108L41.5981 48.4767C40.5078 47.8397 39.7784 46.82 39.4803 45.6861C39.2032 44.6298 39.2999 43.476 39.8289 42.4423V42.4284L39.9536 42.2157C40.5898 41.1255 41.6095 40.396 42.7433 40.0979C43.8771 39.7999 45.1243 39.9341 46.2146 40.5703H46.2137ZM46.5771 43.8219C46.3976 43.1395 45.9566 42.5242 45.2977 42.139C44.638 41.7538 43.8859 41.6719 43.2035 41.8514C42.5237 42.0301 41.911 42.4685 41.5258 43.123L41.5206 43.1308C41.1353 43.7906 41.0534 44.5427 41.2321 45.2242C41.4116 45.9066 41.8526 46.5219 42.5115 46.9071H42.5123C43.1721 47.2923 43.9233 47.3743 44.6057 47.1956C45.2881 47.0161 45.9034 46.576 46.2878 45.9162C46.673 45.2556 46.7549 44.5035 46.5762 43.8219H46.5771Z" fill="#291501"/>
<path d="M52.8721 37.2713C53.9319 37.89 54.6413 38.8818 54.9306 39.9834C55.1999 41.0075 55.1067 42.1274 54.5951 43.1305V43.1462L54.4705 43.3588C53.8517 44.4186 52.8599 45.128 51.7583 45.4174C50.6558 45.7067 49.4436 45.5769 48.3847 44.9581H48.3838C47.324 44.3384 46.6146 43.3475 46.3253 42.245C46.0359 41.1426 46.1658 39.9303 46.7846 38.8705L46.7959 38.8505L46.7985 38.8452L46.8029 38.8383C47.4225 37.7959 48.4056 37.0978 49.4967 36.8111C50.5992 36.5218 51.8115 36.6516 52.8712 37.2704L52.8721 37.2713ZM53.1772 40.4453C53.0063 39.7943 52.5854 39.2078 51.9562 38.84L51.9326 38.8269H51.9309L51.9291 38.8252C51.306 38.4705 50.5992 38.3973 49.9586 38.5655C49.3076 38.7363 48.7211 39.1572 48.3542 39.7865C47.9864 40.4166 47.9088 41.1339 48.0796 41.784C48.2496 42.4315 48.6662 43.0146 49.2893 43.3824L49.3006 43.3894C49.9299 43.7571 50.6471 43.8347 51.2982 43.6639C51.9492 43.4931 52.5357 43.0721 52.9026 42.4438C53.2704 41.8136 53.348 41.0964 53.1772 40.4462V40.4453Z" fill="#291501"/>
<path d="M83.2389 51.005C76.5709 56.0772 70.3474 54.7089 63.6689 53.2404C55.9734 51.5488 47.6364 49.716 37.4013 58.4208L36.23 57.0359C47.1501 47.7498 55.9394 49.682 64.0524 51.4651C70.3143 52.8421 76.1491 54.1242 82.146 49.5635L83.2389 51.005Z" fill="#291501"/>
<path d="M53.2758 50.0009C55.0667 50.0567 59.1481 49.8502 62.6019 48.8662C64.6866 48.2718 66.5072 47.409 67.3238 46.1802L68.8359 47.1807C67.7412 48.8287 65.5529 49.9129 63.0987 50.6127C59.4487 51.6533 55.1251 51.8712 53.2261 51.812L53.2758 50.0018V50.0009Z" fill="#291501"/>
<path d="M45.5742 51.4016C49.632 49.8425 54.5866 53.1525 59.4941 56.4312C64.5376 59.8014 69.528 63.1349 72.5112 60.4105L73.7322 61.7527C69.7031 65.4305 64.1245 61.7039 58.4858 57.9363C53.9661 54.9165 49.4028 51.8679 46.22 53.0906L45.5742 51.4007V51.4016Z" fill="#291501"/>
<path d="M25.9368 66.2908C26.1843 65.8908 26.4205 65.4733 26.6445 65.0402C29.68 59.174 29.6137 51.8671 27.855 45.4414C26.1006 39.0313 22.6878 33.5399 19.0099 31.2643C18.8226 31.1484 18.6256 31.0369 18.4199 30.9305L19.2505 29.3191C19.4797 29.4376 19.7167 29.5727 19.9608 29.7243C24.0116 32.2308 27.7312 38.1345 29.6007 44.9664C31.4666 51.7817 31.518 59.5653 28.255 65.8716C28.0188 66.3283 27.7591 66.7859 27.4768 67.2425L25.9359 66.2908H25.9368Z" fill="#291501"/>
<path d="M29.3974 60.1071C29.8602 60.2954 30.0824 60.8226 29.8942 61.2854C29.7059 61.7482 29.1778 61.9704 28.7159 61.7822C15.623 56.4337 17.2066 49.9521 18.8738 43.1272C19.8847 38.9884 20.9306 34.7083 18.0929 30.6436C17.807 30.2339 17.9064 29.6692 18.3169 29.3833C18.5766 29.2021 18.8982 29.1759 19.1718 29.2848C25.0729 31.6484 29.2074 34.3684 32.0102 37.2384C35.1956 40.4987 36.672 43.9508 37.0685 47.3036C37.4633 50.6398 36.7809 53.8583 35.6497 56.6812C34.006 60.7826 31.3975 64.0612 29.8053 65.6169C29.4462 65.9655 28.8727 65.9577 28.5241 65.5995C28.1755 65.2404 28.1834 64.6669 28.5416 64.3183C30.0153 62.8786 32.4338 59.8343 33.9676 56.0075C34.9978 53.4374 35.6209 50.5186 35.2653 47.5171C34.9124 44.5313 33.5833 41.4426 30.7108 38.5029C28.464 36.2039 25.2777 33.9937 20.8861 31.9892C22.4993 35.9136 21.5537 39.7876 20.6334 43.5543C19.1553 49.6053 17.7513 55.3512 29.3965 60.108L29.3974 60.1071Z" fill="#291501"/>
<path d="M21.3939 40.1321C21.1386 42.7658 22.9513 44.2431 25.0168 45.9251C27.3246 47.805 29.9061 49.908 30.8621 53.9789L29.0938 54.3911C28.2781 50.9189 25.9528 49.0243 23.8734 47.3309C21.407 45.322 19.2421 43.5581 19.5907 39.9622L21.3939 40.133V40.1321Z" fill="#291501"/>
<path d="M33.0581 39.0386C32.0794 40.0147 31.4292 41.3376 31.0083 42.7277C30.4121 44.6965 30.2805 46.7733 30.3328 48.2445L28.5227 48.3081C28.4652 46.6775 28.6107 44.3775 29.2696 42.2013C29.7672 40.5576 30.5594 38.9706 31.7813 37.7522L33.059 39.0377L33.0581 39.0386Z" fill="#291501"/>
<path d="M60.1061 5.28322C60.0965 4.78297 60.4939 4.36986 60.9933 4.36028C61.4935 4.35069 61.9066 4.7481 61.9162 5.24749C62.0495 10.9995 60.8015 16.4134 58.4998 21.8378L58.4981 21.8413H58.4998C56.2173 27.2212 52.9021 32.5994 48.8765 38.327C48.588 38.7366 48.0224 38.8351 47.6128 38.5475C47.2032 38.259 47.1047 37.6934 47.3923 37.2838C51.3525 31.6494 54.6068 26.3741 56.8309 21.1319H56.8326C59.0367 15.9367 60.2333 10.7625 60.1061 5.28322Z" fill="#291501"/>
<path d="M61.8831 5.01734C61.9337 5.18119 62.1228 5.77905 62.3197 6.40132C62.9873 8.51302 63.7665 10.9777 64.3417 13.6088C66.3802 22.9271 65.8346 33.9597 49.0691 37.628C48.6473 37.7195 48.2307 37.5007 48.0547 37.126C41.5854 25.1495 46.0275 20.6751 52.197 14.4638C54.8168 11.8265 57.7669 8.8564 60.2377 4.79336C60.4983 4.36631 61.056 4.23123 61.4839 4.49181C61.687 4.61557 61.8238 4.80643 61.884 5.01821L61.8831 5.01734ZM62.5672 13.9923C62.0504 11.6296 61.3497 9.36188 60.7249 7.38178C58.3988 10.7903 55.8138 13.3944 53.4825 15.7406C47.9658 21.2948 43.9664 25.3238 49.3533 35.6993C63.9434 32.2202 64.3957 22.3484 62.5672 13.9914V13.9923Z" fill="#291501"/>
<path d="M53.9576 15.2623C50.2737 18.7649 51.1347 21.5067 52.0524 24.4272C52.9187 27.1856 53.8286 30.0808 51.9226 33.83L50.3042 33.0065C51.8747 29.916 51.079 27.3808 50.3199 24.9667C49.2279 21.4919 48.2038 18.2307 52.7078 13.948L53.9576 15.2614V15.2623Z" fill="#291501"/>
<path d="M64.9715 17.384C65.0194 20.6566 62.6567 22.0659 60.1241 23.5762C58.2582 24.6891 56.2833 25.8666 55.4946 27.9199L53.8047 27.2741C54.8218 24.6307 57.0703 23.2895 59.1942 22.0223C61.2632 20.7882 63.1936 19.6369 63.1605 17.4058L64.9706 17.3849L64.9715 17.384Z" fill="#291501"/>
<path d="M46.9012 33.4222C47.9017 34.0445 48.5728 35.0049 48.8526 36.0699C49.1419 37.1732 49.012 38.3846 48.3933 39.4444L48.334 39.5472L48.3288 39.5525C47.7065 40.5521 46.7452 41.2232 45.6811 41.5029C44.5786 41.7923 43.3663 41.6624 42.3066 41.0437L42.2037 40.9835L42.1985 40.9783C41.198 40.356 40.5269 39.3947 40.2472 38.3306C39.9779 37.3057 40.072 36.1867 40.5827 35.1835V35.1687L40.7073 34.9561C41.3261 33.8963 42.3179 33.1869 43.4195 32.8975C44.4444 32.6282 45.5634 32.7215 46.5666 33.2331H46.713L46.9021 33.4222H46.9012ZM47.0991 36.5318C46.9282 35.8816 46.509 35.296 45.8807 34.9282L45.8781 34.9264C45.2488 34.5587 44.5316 34.4811 43.8805 34.6519C43.2321 34.8219 42.6482 35.2393 42.2804 35.8642L42.2752 35.8729C41.9074 36.5021 41.8298 37.2203 42.0007 37.8704C42.1715 38.5215 42.5924 39.108 43.2217 39.4758L43.2295 39.4801C43.857 39.8436 44.5708 39.9203 45.2192 39.7503C45.8702 39.5795 46.4567 39.1585 46.8245 38.5293L46.8332 38.5145C47.1932 37.8887 47.269 37.1767 47.0999 36.5318H47.0991Z" fill="#291501"/>
<path fill-rule="evenodd" clip-rule="evenodd" d="M45.8143 35.8753C45.8012 35.6792 45.6792 35.49 45.4509 35.355C45.2217 35.2199 44.9306 35.1641 44.6447 35.1841C44.358 35.2042 44.0765 35.2983 43.8682 35.4639C43.6591 35.6295 43.5623 35.8334 43.5754 36.0295C43.5885 36.2265 43.7105 36.4147 43.9388 36.5498C44.168 36.6849 44.4591 36.7398 44.745 36.7206C45.0308 36.7006 45.3132 36.6056 45.5215 36.4409C45.7307 36.2753 45.8274 36.0714 45.8143 35.8753Z" fill="white"/>
<path fill-rule="evenodd" clip-rule="evenodd" d="M44.8666 43.145C44.8535 42.9489 44.7315 42.7598 44.5031 42.6247C44.2739 42.4897 43.9828 42.4339 43.697 42.4539C43.4103 42.474 43.1288 42.5681 42.9205 42.7337C42.7113 42.8993 42.6146 43.1032 42.6276 43.2993C42.6407 43.4963 42.7627 43.6845 42.9911 43.8196C43.2203 43.9547 43.5114 44.0105 43.7972 43.9904C44.0831 43.9704 44.3654 43.8754 44.5737 43.7107C44.7829 43.5451 44.8796 43.3411 44.8666 43.145Z" fill="white"/>
<path fill-rule="evenodd" clip-rule="evenodd" d="M51.2884 40.3516C51.2754 40.1555 51.1534 39.9664 50.925 39.8313C50.6958 39.6962 50.4047 39.6404 50.1189 39.6605C49.8321 39.6805 49.5506 39.7746 49.3423 39.9402C49.1332 40.1058 49.0364 40.3097 49.0495 40.5058C49.0626 40.7028 49.1846 40.8911 49.4129 41.0261C49.6421 41.1612 49.9332 41.217 50.2191 41.197C50.5049 41.1769 50.7873 41.0819 50.9956 40.9172C51.2048 40.7516 51.3015 40.5477 51.2884 40.3516Z" fill="white"/>
<path d="M205.171 42.0001V25.1521H208.655L214.453 33.1601C215.389 34.4341 216.455 36.2541 216.455 36.2541V25.1521H220.095V42.0001H216.585L210.969 34.3041C209.851 32.7961 208.811 31.0021 208.811 31.0021V42.0001H205.171Z" fill="#8B7452"/>
<path d="M188.436 42.2863C183.236 42.2863 179.518 38.4123 179.518 33.5763C179.518 28.7663 183.21 24.8923 188.41 24.8923C190.776 24.8923 192.856 25.7243 194.39 27.0503L192.128 29.5203C190.958 28.4803 189.762 28.1943 188.488 28.1943C185.55 28.1943 183.314 30.5863 183.314 33.5763C183.314 36.5923 185.498 38.9843 188.488 38.9843C190.1 38.9843 191.452 38.2563 192.362 37.2943V34.8243H189.502V32.1723H195.69V38.7243C194.208 40.9343 191.478 42.2863 188.436 42.2863Z" fill="#8B7452"/>
<path d="M166.894 42.0001V25.1521H170.534V42.0001H166.894Z" fill="#8B7452"/>
<path d="M150.923 42.2863C146.893 42.2863 144.995 40.7523 144.059 39.9983L145.385 37.1903C146.737 38.1783 148.349 39.0363 150.923 39.0363C152.327 39.0363 154.043 38.3863 154.043 37.0603C154.043 35.7603 152.535 35.4223 151.053 35.0583C147.907 34.3303 144.657 33.2643 144.657 29.7543C144.657 26.5043 147.699 24.8923 150.923 24.8923C153.471 24.8923 155.395 25.5683 157.085 26.6863L155.759 29.4943C154.407 28.6103 152.639 28.1423 150.923 28.1423C150.039 28.1423 148.375 28.4803 148.375 29.7543C148.375 30.8463 149.597 31.2363 151.261 31.6263C154.251 32.3283 157.839 33.4463 157.839 37.0603C157.839 40.7003 154.303 42.2863 150.923 42.2863Z" fill="#8B7452"/>
<path d="M122.651 42.0001V25.1521H135.833V28.2721H126.291V31.7041H135.339V34.7981H126.291V38.8801H136.197V42.0001H122.651Z" fill="#8B7452"/>
<path d="M97.9009 42.0001V25.1521H104.661C110.199 25.1521 113.683 28.9741 113.683 33.5761C113.683 38.1781 110.199 42.0001 104.661 42.0001H97.9009ZM101.541 38.8801H104.505C107.729 38.8801 109.861 36.6441 109.861 33.5761C109.861 30.5341 107.729 28.2721 104.505 28.2721H101.541V38.8801Z" fill="#8B7452"/>
<path d="M188.803 64.0003V53.6323H196.915V55.5523H191.043V57.6643H196.611V59.5683H191.043V62.0803H197.139V64.0003H188.803Z" fill="#8B7452"/>
<path d="M175.229 64.0003V53.6323H183.341V55.5523H177.469V57.6643H183.037V59.5683H177.469V62.0803H183.565V64.0003H175.229Z" fill="#8B7452"/>
<path d="M162.436 64.0003V53.6323H170.196V55.5523H164.676V57.6643H169.38V59.5683H164.676V64.0003H162.436Z" fill="#8B7452"/>
<path d="M149.643 64.0003V53.6323H157.403V55.5523H151.883V57.6643H156.587V59.5683H151.883V64.0003H149.643Z" fill="#8B7452"/>
<path d="M138.641 64.1767C135.441 64.1767 133.153 61.7927 133.153 58.8167C133.153 55.8567 135.441 53.4727 138.641 53.4727C141.841 53.4727 144.129 55.8567 144.129 58.8167C144.129 61.7927 141.841 64.1767 138.641 64.1767ZM138.657 62.1447C140.465 62.1447 141.793 60.6727 141.793 58.8167C141.793 56.9767 140.465 55.5047 138.657 55.5047C136.849 55.5047 135.489 56.9767 135.489 58.8167C135.489 60.6727 136.833 62.1447 138.657 62.1447Z" fill="#8B7452"/>
<path d="M124.614 64.1764C121.414 64.1764 119.142 61.7924 119.142 58.8004C119.142 55.8564 121.414 53.4724 124.614 53.4724C126.038 53.4724 127.318 53.9524 128.246 54.7844L126.87 56.2884C126.166 55.6804 125.446 55.5044 124.742 55.5044C122.854 55.5044 121.478 56.9764 121.478 58.8004C121.478 60.6564 122.822 62.1444 124.662 62.1444C125.622 62.1444 126.502 61.7764 127.142 61.0724L128.534 62.6404C127.542 63.6004 126.198 64.1764 124.614 64.1764Z" fill="#8B7452"/>
</svg>
