<svg width="240" height="80" viewBox="0 0 240 80" fill="none" xmlns="http://www.w3.org/2000/svg">
<path d="M42.8966 47.7654C43.1584 47.3372 43.7176 47.2022 44.1444 47.4627C44.5726 47.7245 44.7076 48.2836 44.4472 48.7119C43.5389 50.1956 42.3961 51.9781 41.005 53.9132C39.614 55.8484 37.987 57.92 36.1228 59.967C32.9302 63.4705 27.9211 67.5235 22.5902 70.4761C18.1853 72.9158 13.5376 74.6151 9.46404 74.6601C8.96354 74.6642 8.55442 74.2605 8.55032 73.76C8.54623 73.2595 8.9499 72.8504 9.4504 72.8463C13.1898 72.8054 17.5402 71.1989 21.7079 68.89C26.8615 66.0357 31.7001 62.1231 34.7781 58.7437C36.6069 56.7376 38.1875 54.7247 39.5322 52.8536C40.8769 50.9825 41.9979 49.2314 42.8966 47.7654Z" fill="white"/>
<path d="M41.2521 53.5599C40.9248 53.939 40.3506 53.9799 39.9715 53.6526C39.5924 53.3253 39.5515 52.7512 39.8788 52.372C51.3752 39.0604 59.7364 42.5475 68.4863 46.1969C72.9717 48.068 77.5662 49.9841 82.6885 49.4386C83.1876 49.3854 83.635 49.7468 83.6881 50.2459C83.7113 50.4696 83.6527 50.6823 83.5354 50.8542C68.6363 72.673 57.3185 66.8961 48.0109 62.1434C43.6455 59.915 39.7601 57.9307 36.3875 59.574C35.9361 59.7936 35.3906 59.6054 35.1711 59.154C34.9515 58.7026 35.1397 58.1571 35.5911 57.9375C39.7792 55.8974 44.045 58.0739 48.8359 60.5205C57.2803 64.8313 67.5017 70.045 80.9661 51.3506C76.1793 51.3738 71.9394 49.6063 67.7894 47.8757C59.6587 44.4854 51.888 41.2438 41.2521 53.5599Z" fill="white"/>
<path d="M46.2352 40.6097C47.3276 41.248 48.0586 42.2694 48.3573 43.4054C48.6559 44.5414 48.5209 45.7907 47.884 46.883C47.2458 47.9754 46.2243 48.7064 45.0883 49.005C44.0301 49.2832 42.8736 49.185 41.8385 48.6559H41.8235L41.6107 48.5318C40.5184 47.8936 39.7874 46.8721 39.4887 45.7361C39.2105 44.6778 39.3087 43.5214 39.8379 42.4863V42.4713L39.962 42.2585C40.6002 41.1662 41.6217 40.4352 42.7577 40.1365C43.8937 39.8378 45.1442 39.9715 46.2366 40.6097H46.2352ZM46.5994 43.8678C46.4194 43.1831 45.9775 42.5681 45.3174 42.1821C44.656 41.7962 43.9019 41.7144 43.2186 41.893C42.5381 42.0717 41.923 42.5108 41.5371 43.1668L41.5316 43.175C41.1457 43.8364 41.0639 44.5892 41.2425 45.2724C41.4225 45.9557 41.8644 46.5721 42.5245 46.958C43.1845 47.344 43.9387 47.4258 44.6219 47.2471C45.3052 47.0671 45.9216 46.6266 46.3075 45.9652C46.6935 45.3038 46.7753 44.5496 46.5966 43.8664L46.5994 43.8678Z" fill="white"/>
<path d="M52.9075 37.3044C53.9685 37.9249 54.6804 38.9177 54.9695 40.0224C55.2395 41.0493 55.1454 42.1703 54.634 43.1754V43.1904L54.5099 43.4031C53.8894 44.4655 52.8966 45.176 51.7919 45.4651C50.6873 45.7556 49.4722 45.6247 48.4112 45.0056C47.3488 44.3851 46.6383 43.3909 46.3492 42.2876C46.0587 41.1829 46.1896 39.9678 46.8101 38.9068L46.821 38.8864L46.8237 38.8809L46.8278 38.8741C47.4483 37.8295 48.433 37.1299 49.5267 36.8435C50.6314 36.553 51.8465 36.6839 52.9075 37.3031V37.3044ZM53.2129 40.4847C53.0411 39.8328 52.6197 39.245 51.9897 38.8768V38.8755L51.9665 38.8632H51.9651L51.9637 38.8618C51.3391 38.5073 50.6314 38.4322 49.989 38.6014C49.3371 38.7732 48.7494 39.1946 48.3811 39.8246C48.0129 40.4561 47.9352 41.1748 48.1057 41.8266C48.2761 42.4758 48.6934 43.0595 49.3181 43.4291L49.329 43.4359C49.959 43.8041 50.6777 43.8818 51.3296 43.7114C51.9815 43.5395 52.5693 43.1181 52.9375 42.4881C53.3057 41.8566 53.3834 41.1379 53.2129 40.4861V40.4847Z" fill="white"/>
<path d="M83.3334 51.0646C76.6524 56.1459 70.4173 54.7754 63.7253 53.3039C56.0146 51.6087 47.6616 49.7717 37.4061 58.4943L36.2319 57.1074C47.1734 47.8025 55.9792 49.739 64.1085 51.5255C70.3818 52.9043 76.2282 54.1903 82.237 49.6204L83.3321 51.0646H83.3334Z" fill="white"/>
<path d="M53.3113 50.0577C55.106 50.1136 59.1946 49.9063 62.6558 48.9203C64.7451 48.3244 66.5684 47.4611 67.3867 46.2283L68.9018 47.2306C67.8053 48.8821 65.6124 49.9677 63.1535 50.6687C59.4959 51.7106 55.1646 51.9288 53.2622 51.8701L53.3113 50.0563V50.0577Z" fill="white"/>
<path d="M45.5956 51.4614C49.661 49.8999 54.6264 53.2166 59.5428 56.5005C64.5969 59.8772 69.5964 63.217 72.5857 60.4881L73.809 61.8328C69.7723 65.5177 64.1823 61.7837 58.5322 58.0088C54.0032 54.9826 49.4319 51.9292 46.242 53.1538L45.5942 51.4614H45.5956Z" fill="white"/>
<path d="M25.9185 66.3797C26.1667 65.9788 26.4026 65.5601 26.6277 65.1264C29.6688 59.2486 29.6034 51.928 27.84 45.4897C26.0822 39.0677 22.6632 33.565 18.977 31.2847C18.7888 31.1688 18.5924 31.057 18.3865 30.9506L19.2184 29.3359C19.4475 29.4546 19.6861 29.591 19.9302 29.741C23.9888 32.253 27.7159 38.1676 29.5898 45.0123C31.4595 51.8407 31.5113 59.64 28.2424 65.9583C28.0051 66.4152 27.7459 66.8748 27.4623 67.3316L25.9185 66.3783V66.3797Z" fill="white"/>
<path d="M29.3866 60.1838C29.8503 60.372 30.0725 60.9012 29.8843 61.3648C29.6962 61.8285 29.167 62.0508 28.7033 61.8626C15.584 56.5044 17.1714 50.0088 18.842 43.1709C19.8553 39.0237 20.9026 34.7361 18.0592 30.6625C17.7728 30.252 17.8724 29.6861 18.2829 29.3997C18.5433 29.2183 18.8652 29.191 19.1393 29.3015C25.0526 31.6704 29.1943 34.3951 32.0023 37.2699C35.1935 40.5361 36.6731 43.996 37.07 47.3549C37.4655 50.6975 36.7822 53.9228 35.649 56.7512C34.0029 60.8602 31.3886 64.1455 29.793 65.7043C29.4329 66.0534 28.8588 66.0453 28.5083 65.6866C28.1592 65.3266 28.166 64.7524 28.526 64.4019C30.003 62.9591 32.4264 59.9097 33.962 56.0748C34.9944 53.4987 35.6176 50.5761 35.263 47.5677C34.9098 44.5756 33.5788 41.4812 30.6999 38.5355C28.4497 36.2321 25.2558 34.0174 20.8563 32.0086C22.4723 35.9403 21.5259 39.8215 20.6026 43.5964C19.1216 49.6583 17.7142 55.4161 29.3825 60.1825L29.3866 60.1838Z" fill="white"/>
<path d="M21.369 40.1695C21.1126 42.8084 22.9291 44.288 24.9979 45.9736C27.3095 47.857 29.8966 49.964 30.8539 54.043L29.0824 54.4562C28.2655 50.9773 25.9348 49.0789 23.8524 47.3824C21.3812 45.3695 19.2115 43.6021 19.562 39.999L21.369 40.1695Z" fill="white"/>
<path d="M33.0547 39.0743C32.0742 40.0521 31.4223 41.3776 31.0009 42.7714C30.4036 44.7434 30.2727 46.8245 30.3245 48.2987L28.5107 48.3628C28.4534 46.729 28.598 44.4243 29.258 42.245C29.7572 40.5989 30.5509 39.0074 31.7742 37.7869L33.0547 39.0743Z" fill="white"/>
<path d="M60.1549 5.25317C60.1453 4.75267 60.5436 4.33808 61.0441 4.32854C61.5446 4.31899 61.9591 4.71721 61.9687 5.21771C62.1023 10.981 60.8518 16.4046 58.5457 21.8406V21.8433C56.2586 27.2329 52.9379 32.6224 48.9039 38.3611C48.6148 38.7716 48.0488 38.8698 47.6383 38.5821C47.2278 38.2929 47.1296 37.727 47.4174 37.3165C51.3846 31.6719 54.6453 26.386 56.8751 21.1328C59.0843 15.9273 60.2817 10.7437 60.1549 5.25317Z" fill="white"/>
<path d="M61.9355 4.98715C61.986 5.15217 62.1755 5.74949 62.3733 6.3741C63.0415 8.48928 63.8229 10.9591 64.3998 13.5952C66.4427 22.9315 65.8959 33.9861 49.0971 37.6601C48.6743 37.7514 48.257 37.5332 48.0811 37.1568C41.5991 25.1571 46.0504 20.6731 52.231 14.4503C54.8549 11.8073 57.8115 8.83159 60.2867 4.76077C60.5486 4.33255 61.1077 4.19754 61.5346 4.45801C61.7378 4.58212 61.8755 4.77304 61.9355 4.98579V4.98715ZM62.6201 13.9798C62.1019 11.6123 61.3995 9.34027 60.7736 7.356C58.4429 10.7722 55.8531 13.3797 53.517 15.7308C47.9897 21.2963 43.9816 25.3331 49.3794 35.729C63.9975 32.2432 64.4516 22.3519 62.6187 13.9798H62.6201Z" fill="white"/>
<path d="M53.9941 15.2522C50.3024 18.7611 51.1657 21.5091 52.0862 24.4357C52.9549 27.1987 53.8659 30.1008 51.9567 33.8566L50.3351 33.0315C51.9089 29.9358 51.1111 27.3951 50.3515 24.9758C49.2578 21.4941 48.2309 18.2265 52.7435 13.9362L53.9955 15.2522H53.9941Z" fill="white"/>
<path d="M65.0298 17.3782C65.0776 20.6566 62.7114 22.0695 60.1735 23.5833C58.3038 24.6988 56.325 25.8785 55.534 27.935L53.8416 27.2872C54.8603 24.6388 57.1132 23.2942 59.242 22.0259C61.3149 20.7889 63.2488 19.6352 63.216 17.4L65.0298 17.3782Z" fill="white"/>
<path d="M46.9247 33.4474C47.9271 34.0707 48.5994 35.0335 48.8803 36.0999C49.1708 37.2046 49.0399 38.4197 48.4208 39.4807L48.3608 39.583L48.3553 39.5884C47.7321 40.5908 46.7692 41.2631 45.7028 41.5427C44.5981 41.8332 43.383 41.7023 42.322 41.0817L42.2197 41.0217L42.2143 41.0163C41.2119 40.393 40.5396 39.4302 40.2587 38.3638C39.9886 37.3369 40.0827 36.2159 40.5941 35.2108V35.1958L40.7182 34.983C41.3388 33.9206 42.3316 33.2101 43.4362 32.921C44.4631 32.651 45.5841 32.7451 46.5892 33.2565H46.7351L46.9247 33.4461V33.4474ZM47.1225 36.5622C46.952 35.9104 46.5306 35.324 45.9019 34.9557H45.8992C45.2691 34.5862 44.5504 34.5071 43.8985 34.6789C43.2494 34.8494 42.6643 35.268 42.2948 35.894L42.2893 35.9022C41.9211 36.5322 41.8433 37.2523 42.0138 37.9028C42.1857 38.5547 42.6071 39.1425 43.2371 39.5107L43.2453 39.5148C43.874 39.8789 44.59 39.9566 45.2377 39.7862C45.8896 39.6143 46.4774 39.1929 46.8456 38.5629L46.8538 38.5479C47.2152 37.9206 47.2902 37.2073 47.1211 36.5609L47.1225 36.5622Z" fill="white"/>
<path d="M205.171 42.0003V25.1523H208.655L214.453 33.1603C215.389 34.4343 216.455 36.2543 216.455 36.2543V25.1523H220.095V42.0003H216.585L210.969 34.3043C209.851 32.7963 208.811 31.0023 208.811 31.0023V42.0003H205.171Z" fill="white"/>
<path d="M188.436 42.2863C183.236 42.2863 179.518 38.4123 179.518 33.5763C179.518 28.7663 183.21 24.8923 188.41 24.8923C190.776 24.8923 192.856 25.7243 194.39 27.0503L192.128 29.5203C190.958 28.4803 189.762 28.1943 188.488 28.1943C185.55 28.1943 183.314 30.5863 183.314 33.5763C183.314 36.5923 185.498 38.9843 188.488 38.9843C190.1 38.9843 191.452 38.2563 192.362 37.2943V34.8243H189.502V32.1723H195.69V38.7243C194.208 40.9343 191.478 42.2863 188.436 42.2863Z" fill="white"/>
<path d="M166.894 42.0001V25.1521H170.534V42.0001H166.894Z" fill="white"/>
<path d="M150.923 42.2863C146.893 42.2863 144.995 40.7523 144.059 39.9983L145.385 37.1903C146.737 38.1783 148.349 39.0363 150.923 39.0363C152.327 39.0363 154.043 38.3863 154.043 37.0603C154.043 35.7603 152.535 35.4223 151.053 35.0583C147.907 34.3303 144.657 33.2643 144.657 29.7543C144.657 26.5043 147.699 24.8923 150.923 24.8923C153.471 24.8923 155.395 25.5683 157.085 26.6863L155.759 29.4943C154.407 28.6103 152.639 28.1423 150.923 28.1423C150.039 28.1423 148.375 28.4803 148.375 29.7543C148.375 30.8463 149.597 31.2363 151.261 31.6263C154.251 32.3283 157.839 33.4463 157.839 37.0603C157.839 40.7003 154.303 42.2863 150.923 42.2863Z" fill="white"/>
<path d="M122.651 42.0001V25.1521H135.833V28.2721H126.291V31.7041H135.339V34.7981H126.291V38.8801H136.197V42.0001H122.651Z" fill="white"/>
<path d="M97.9009 42.0001V25.1521H104.661C110.199 25.1521 113.683 28.9741 113.683 33.5761C113.683 38.1781 110.199 42.0001 104.661 42.0001H97.9009ZM101.541 38.8801H104.505C107.729 38.8801 109.861 36.6441 109.861 33.5761C109.861 30.5341 107.729 28.2721 104.505 28.2721H101.541V38.8801Z" fill="white"/>
<path d="M188.804 64.0006V53.6326H196.916V55.5526H191.044V57.6646H196.612V59.5686H191.044V62.0806H197.14V64.0006H188.804Z" fill="white"/>
<path d="M175.229 64.0006V53.6326H183.341V55.5526H177.469V57.6646H183.037V59.5686H177.469V62.0806H183.565V64.0006H175.229Z" fill="white"/>
<path d="M162.436 64.0006V53.6326H170.196V55.5526H164.676V57.6646H169.38V59.5686H164.676V64.0006H162.436Z" fill="white"/>
<path d="M149.643 64.0006V53.6326H157.403V55.5526H151.883V57.6646H156.587V59.5686H151.883V64.0006H149.643Z" fill="white"/>
<path d="M138.642 64.1769C135.442 64.1769 133.154 61.7929 133.154 58.8169C133.154 55.8569 135.442 53.4729 138.642 53.4729C141.842 53.4729 144.13 55.8569 144.13 58.8169C144.13 61.7929 141.842 64.1769 138.642 64.1769ZM138.658 62.1449C140.466 62.1449 141.794 60.6729 141.794 58.8169C141.794 56.9769 140.466 55.5049 138.658 55.5049C136.85 55.5049 135.49 56.9769 135.49 58.8169C135.49 60.6729 136.834 62.1449 138.658 62.1449Z" fill="white"/>
<path d="M124.614 64.1767C121.414 64.1767 119.142 61.7927 119.142 58.8007C119.142 55.8567 121.414 53.4727 124.614 53.4727C126.038 53.4727 127.318 53.9527 128.246 54.7847L126.87 56.2887C126.166 55.6807 125.446 55.5047 124.742 55.5047C122.854 55.5047 121.478 56.9767 121.478 58.8007C121.478 60.6567 122.822 62.1447 124.662 62.1447C125.622 62.1447 126.502 61.7767 127.142 61.0727L128.534 62.6407C127.542 63.6007 126.198 64.1767 124.614 64.1767Z" fill="white"/>
</svg>
